<mxfile host="app.diagrams.net" modified="2023-08-29T17:27:00.913Z" agent="Mozilla/5.0 (Windows NT 10.0; Win64; x64) AppleWebKit/537.36 (KHTML, like Gecko) Chrome/116.0.0.0 Safari/537.36 Edg/116.0.1938.62" etag="8dX34usp6Mtddg0PEpb2" version="21.6.9" type="device">
  <diagram name="PÃ¡gina-1" id="-AqjxgNvBR5HgGqGN9DI">
    <mxGraphModel dx="693" dy="395" grid="1" gridSize="10" guides="1" tooltips="1" connect="1" arrows="1" fold="1" page="1" pageScale="1" pageWidth="827" pageHeight="1169" math="0" shadow="0">
      <root>
        <mxCell id="0" />
        <mxCell id="1" parent="0" />
        <mxCell id="ThXSkIyZaX_4LJuEJS70-1" value="" style="rhombus;whiteSpace=wrap;html=1;rounded=1;" vertex="1" parent="1">
          <mxGeometry x="200" y="130" width="310" height="160" as="geometry" />
        </mxCell>
        <mxCell id="ThXSkIyZaX_4LJuEJS70-9" value="" style="triangle;whiteSpace=wrap;html=1;rounded=1;" vertex="1" parent="1">
          <mxGeometry x="200" y="220" width="150" height="160" as="geometry" />
        </mxCell>
        <mxCell id="ThXSkIyZaX_4LJuEJS70-10" value="" style="triangle;whiteSpace=wrap;html=1;rotation=-180;rounded=1;" vertex="1" parent="1">
          <mxGeometry x="360" y="220" width="150" height="160" as="geometry" />
        </mxCell>
        <mxCell id="ThXSkIyZaX_4LJuEJS70-11" value="" style="triangle;whiteSpace=wrap;html=1;rounded=1;" vertex="1" parent="1">
          <mxGeometry x="360" y="300" width="150" height="160" as="geometry" />
        </mxCell>
        <mxCell id="ThXSkIyZaX_4LJuEJS70-13" value="" style="triangle;whiteSpace=wrap;html=1;rotation=-180;rounded=1;" vertex="1" parent="1">
          <mxGeometry x="200" y="300" width="150" height="160" as="geometry" />
        </mxCell>
        <mxCell id="ThXSkIyZaX_4LJuEJS70-14" value="" style="triangle;whiteSpace=wrap;html=1;rotation=-180;rounded=1;" vertex="1" parent="1">
          <mxGeometry x="200" y="360" width="150" height="160" as="geometry" />
        </mxCell>
        <mxCell id="ThXSkIyZaX_4LJuEJS70-15" value="" style="triangle;whiteSpace=wrap;html=1;rotation=-180;rounded=1;" vertex="1" parent="1">
          <mxGeometry x="360" y="280" width="150" height="160" as="geometry" />
        </mxCell>
        <mxCell id="ThXSkIyZaX_4LJuEJS70-16" value="" style="triangle;whiteSpace=wrap;html=1;rounded=1;" vertex="1" parent="1">
          <mxGeometry x="200" y="280" width="150" height="160" as="geometry" />
        </mxCell>
        <mxCell id="ThXSkIyZaX_4LJuEJS70-17" value="" style="triangle;whiteSpace=wrap;html=1;rounded=1;" vertex="1" parent="1">
          <mxGeometry x="360" y="360" width="150" height="160" as="geometry" />
        </mxCell>
        <mxCell id="ThXSkIyZaX_4LJuEJS70-37" value="" style="endArrow=none;html=1;rounded=0;" edge="1" parent="1">
          <mxGeometry width="50" height="50" relative="1" as="geometry">
            <mxPoint x="434.8" y="260" as="sourcePoint" />
            <mxPoint x="434.8" y="480" as="targetPoint" />
          </mxGeometry>
        </mxCell>
        <mxCell id="ThXSkIyZaX_4LJuEJS70-38" value="" style="endArrow=none;html=1;rounded=0;" edge="1" parent="1">
          <mxGeometry width="50" height="50" relative="1" as="geometry">
            <mxPoint x="450" y="252" as="sourcePoint" />
            <mxPoint x="450" y="472" as="targetPoint" />
          </mxGeometry>
        </mxCell>
        <mxCell id="ThXSkIyZaX_4LJuEJS70-39" value="" style="endArrow=none;html=1;rounded=0;" edge="1" parent="1">
          <mxGeometry width="50" height="50" relative="1" as="geometry">
            <mxPoint x="420" y="268" as="sourcePoint" />
            <mxPoint x="420" y="488" as="targetPoint" />
          </mxGeometry>
        </mxCell>
        <mxCell id="ThXSkIyZaX_4LJuEJS70-40" value="" style="endArrow=none;html=1;rounded=0;" edge="1" parent="1">
          <mxGeometry width="50" height="50" relative="1" as="geometry">
            <mxPoint x="510" y="340" as="sourcePoint" />
            <mxPoint x="360" y="420" as="targetPoint" />
          </mxGeometry>
        </mxCell>
        <mxCell id="ThXSkIyZaX_4LJuEJS70-41" value="" style="endArrow=none;html=1;rounded=0;" edge="1" parent="1">
          <mxGeometry width="50" height="50" relative="1" as="geometry">
            <mxPoint x="510" y="320" as="sourcePoint" />
            <mxPoint x="360" y="400" as="targetPoint" />
          </mxGeometry>
        </mxCell>
        <mxCell id="ThXSkIyZaX_4LJuEJS70-42" value="" style="endArrow=none;html=1;rounded=0;" edge="1" parent="1">
          <mxGeometry width="50" height="50" relative="1" as="geometry">
            <mxPoint x="510" y="360" as="sourcePoint" />
            <mxPoint x="360" y="440" as="targetPoint" />
          </mxGeometry>
        </mxCell>
        <mxCell id="ThXSkIyZaX_4LJuEJS70-43" value="" style="endArrow=none;html=1;rounded=0;" edge="1" parent="1">
          <mxGeometry width="50" height="50" relative="1" as="geometry">
            <mxPoint x="330" y="290" as="sourcePoint" />
            <mxPoint x="330" y="510" as="targetPoint" />
          </mxGeometry>
        </mxCell>
        <mxCell id="ThXSkIyZaX_4LJuEJS70-44" value="" style="endArrow=none;html=1;rounded=0;" edge="1" parent="1">
          <mxGeometry width="50" height="50" relative="1" as="geometry">
            <mxPoint x="310" y="279" as="sourcePoint" />
            <mxPoint x="310" y="499" as="targetPoint" />
          </mxGeometry>
        </mxCell>
        <mxCell id="ThXSkIyZaX_4LJuEJS70-46" value="" style="endArrow=none;html=1;rounded=0;" edge="1" parent="1">
          <mxGeometry width="50" height="50" relative="1" as="geometry">
            <mxPoint x="200" y="360" as="sourcePoint" />
            <mxPoint x="350" y="440" as="targetPoint" />
          </mxGeometry>
        </mxCell>
        <mxCell id="ThXSkIyZaX_4LJuEJS70-47" value="" style="endArrow=none;html=1;rounded=0;" edge="1" parent="1">
          <mxGeometry width="50" height="50" relative="1" as="geometry">
            <mxPoint x="200" y="320" as="sourcePoint" />
            <mxPoint x="350" y="400" as="targetPoint" />
          </mxGeometry>
        </mxCell>
        <mxCell id="ThXSkIyZaX_4LJuEJS70-49" value="" style="ellipse;whiteSpace=wrap;html=1;" vertex="1" parent="1">
          <mxGeometry x="280" y="170" width="150" height="80" as="geometry" />
        </mxCell>
        <mxCell id="ThXSkIyZaX_4LJuEJS70-50" value="" style="ellipse;whiteSpace=wrap;html=1;" vertex="1" parent="1">
          <mxGeometry x="300" y="180" width="110" height="60" as="geometry" />
        </mxCell>
        <mxCell id="ThXSkIyZaX_4LJuEJS70-51" value="" style="ellipse;whiteSpace=wrap;html=1;" vertex="1" parent="1">
          <mxGeometry x="325" y="195" width="60" height="30" as="geometry" />
        </mxCell>
        <mxCell id="ThXSkIyZaX_4LJuEJS70-52" value="" style="endArrow=none;html=1;rounded=0;" edge="1" parent="1">
          <mxGeometry width="50" height="50" relative="1" as="geometry">
            <mxPoint x="350" y="320" as="sourcePoint" />
            <mxPoint x="200" y="400" as="targetPoint" />
          </mxGeometry>
        </mxCell>
        <mxCell id="ThXSkIyZaX_4LJuEJS70-53" value="" style="endArrow=none;html=1;rounded=0;" edge="1" parent="1">
          <mxGeometry width="50" height="50" relative="1" as="geometry">
            <mxPoint x="260" y="250" as="sourcePoint" />
            <mxPoint x="260" y="470" as="targetPoint" />
          </mxGeometry>
        </mxCell>
        <mxCell id="ThXSkIyZaX_4LJuEJS70-55" value="" style="endArrow=none;html=1;rounded=0;" edge="1" parent="1">
          <mxGeometry width="50" height="50" relative="1" as="geometry">
            <mxPoint x="200" y="420" as="sourcePoint" />
            <mxPoint x="350" y="500" as="targetPoint" />
          </mxGeometry>
        </mxCell>
        <mxCell id="ThXSkIyZaX_4LJuEJS70-56" value="" style="endArrow=none;html=1;rounded=0;" edge="1" parent="1">
          <mxGeometry width="50" height="50" relative="1" as="geometry">
            <mxPoint x="200" y="400" as="sourcePoint" />
            <mxPoint x="350" y="480" as="targetPoint" />
          </mxGeometry>
        </mxCell>
        <mxCell id="ThXSkIyZaX_4LJuEJS70-57" value="" style="endArrow=none;html=1;rounded=0;" edge="1" parent="1">
          <mxGeometry width="50" height="50" relative="1" as="geometry">
            <mxPoint x="200" y="380" as="sourcePoint" />
            <mxPoint x="350" y="460" as="targetPoint" />
          </mxGeometry>
        </mxCell>
        <mxCell id="ThXSkIyZaX_4LJuEJS70-58" value="" style="endArrow=none;html=1;rounded=0;" edge="1" parent="1">
          <mxGeometry width="50" height="50" relative="1" as="geometry">
            <mxPoint x="220" y="230" as="sourcePoint" />
            <mxPoint x="220" y="450" as="targetPoint" />
          </mxGeometry>
        </mxCell>
        <mxCell id="ThXSkIyZaX_4LJuEJS70-59" value="" style="endArrow=none;html=1;rounded=0;" edge="1" parent="1">
          <mxGeometry width="50" height="50" relative="1" as="geometry">
            <mxPoint x="200" y="300" as="sourcePoint" />
            <mxPoint x="350" y="380" as="targetPoint" />
          </mxGeometry>
        </mxCell>
        <mxCell id="ThXSkIyZaX_4LJuEJS70-60" value="" style="endArrow=none;html=1;rounded=0;" edge="1" parent="1">
          <mxGeometry width="50" height="50" relative="1" as="geometry">
            <mxPoint x="200" y="260" as="sourcePoint" />
            <mxPoint x="350" y="340" as="targetPoint" />
          </mxGeometry>
        </mxCell>
      </root>
    </mxGraphModel>
  </diagram>
</mxfile>
